<svg width="501" height="150" viewBox="0 0 501 150" fill="none" xmlns="http://www.w3.org/2000/svg">
<path d="M30.6839 63L30.6839 45.12H24.8039V42H39.9839V45.12H33.9239V63H30.6839ZM57.6891 63V42H60.9291V63H57.6891ZM43.9791 63V42H47.2191V63H43.9791ZM45.3891 54.09V50.97H59.1291V54.09H45.3891ZM66.8013 63L66.8013 42H80.0313L80.0313 45.12H70.0413V59.88H80.0313V63H66.8013ZM68.2713 53.79V50.67H78.3813V53.79H68.2713Z" fill="white"/>
<g clip-path="url(#paint0_diamond_1659_1456_clip_path)" data-figma-skip-parse="true"><g transform="matrix(0.24675 -0.142 0.142709 0.247982 315.75 94.5)"><rect x="0" y="0" width="1049.3" height="841.492" fill="url(#paint0_diamond_1659_1456)" opacity="1" shape-rendering="crispEdges"/><rect x="0" y="0" width="1049.3" height="841.492" transform="scale(1 -1)" fill="url(#paint0_diamond_1659_1456)" opacity="1" shape-rendering="crispEdges"/><rect x="0" y="0" width="1049.3" height="841.492" transform="scale(-1 1)" fill="url(#paint0_diamond_1659_1456)" opacity="1" shape-rendering="crispEdges"/><rect x="0" y="0" width="1049.3" height="841.492" transform="scale(-1)" fill="url(#paint0_diamond_1659_1456)" opacity="1" shape-rendering="crispEdges"/></g></g><path d="M127.525 63.72C125.893 63.72 124.261 63.456 122.629 62.928C121.045 62.4 119.581 61.704 118.237 60.84C116.941 59.928 115.837 58.944 114.925 57.888C114.061 56.784 113.485 55.68 113.197 54.576L115.069 53.568V62.784L107.653 62.784L107.653 9.72H115.069V33.84L113.917 33.192C114.157 32.088 114.685 31.032 115.501 30.024C116.317 28.968 117.349 28.032 118.597 27.216C119.893 26.352 121.285 25.68 122.773 25.2C124.261 24.672 125.773 24.408 127.309 24.408C130.717 24.408 133.741 25.248 136.381 26.928C139.021 28.608 141.109 30.936 142.645 33.912C144.181 36.84 144.949 40.2 144.949 43.992C144.949 47.784 144.181 51.168 142.645 54.144C141.157 57.12 139.093 59.472 136.453 61.2C133.813 62.88 130.837 63.72 127.525 63.72ZM126.301 56.952C128.509 56.952 130.477 56.4 132.205 55.296C133.933 54.144 135.301 52.608 136.309 50.688C137.317 48.72 137.821 46.488 137.821 43.992C137.821 41.544 137.317 39.36 136.309 37.44C135.349 35.472 134.005 33.936 132.277 32.832C130.549 31.728 128.557 31.176 126.301 31.176C124.045 31.176 122.053 31.728 120.325 32.832C118.597 33.936 117.229 35.472 116.221 37.44C115.213 39.36 114.709 41.544 114.709 43.992C114.709 46.488 115.213 48.72 116.221 50.688C117.229 52.608 118.597 54.144 120.325 55.296C122.053 56.4 124.045 56.952 126.301 56.952ZM154.228 63V25.2H161.644V63L154.228 63ZM157.828 16.848C156.244 16.848 155.02 16.44 154.156 15.624C153.292 14.808 152.86 13.656 152.86 12.168C152.86 10.776 153.292 9.648 154.156 8.784C155.068 7.92 156.292 7.488 157.828 7.488C159.412 7.488 160.636 7.896 161.5 8.712C162.364 9.528 162.796 10.68 162.796 12.168C162.796 13.56 162.34 14.688 161.428 15.552C160.564 16.416 159.364 16.848 157.828 16.848ZM189.963 79.56C187.275 79.56 184.587 79.128 181.899 78.264C179.259 77.448 177.123 76.368 175.491 75.024L178.227 69.264C179.187 69.984 180.315 70.608 181.611 71.136C182.907 71.712 184.275 72.144 185.715 72.432C187.155 72.768 188.571 72.936 189.963 72.936C192.603 72.936 194.811 72.504 196.587 71.64C198.363 70.776 199.707 69.504 200.619 67.824C201.531 66.144 201.987 64.056 201.987 61.56V54.288L202.779 54.792C202.539 56.28 201.747 57.72 200.403 59.112C199.107 60.456 197.475 61.56 195.507 62.424C193.539 63.288 191.523 63.72 189.459 63.72C185.859 63.72 182.643 62.88 179.811 61.2C177.027 59.472 174.819 57.144 173.187 54.216C171.555 51.24 170.739 47.856 170.739 44.064C170.739 40.272 171.531 36.912 173.115 33.984C174.747 31.008 176.955 28.68 179.739 27C182.571 25.272 185.739 24.408 189.243 24.408C190.683 24.408 192.075 24.6 193.419 24.984C194.763 25.32 196.011 25.824 197.163 26.496C198.315 27.12 199.347 27.816 200.259 28.584C201.171 29.352 201.915 30.168 202.491 31.032C203.067 31.896 203.427 32.712 203.571 33.48L201.987 34.056V25.2H209.403V60.696C209.403 63.72 208.947 66.384 208.035 68.688C207.171 71.04 205.899 73.008 204.219 74.592C202.539 76.224 200.499 77.448 198.099 78.264C195.699 79.128 192.987 79.56 189.963 79.56ZM190.251 56.88C192.603 56.88 194.691 56.328 196.515 55.224C198.339 54.12 199.755 52.608 200.763 50.688C201.771 48.768 202.275 46.56 202.275 44.064C202.275 41.568 201.747 39.36 200.691 37.44C199.683 35.472 198.267 33.936 196.443 32.832C194.667 31.728 192.603 31.176 190.251 31.176C187.947 31.176 185.883 31.752 184.059 32.904C182.283 34.008 180.867 35.544 179.811 37.512C178.803 39.432 178.299 41.616 178.299 44.064C178.299 46.512 178.803 48.72 179.811 50.688C180.867 52.608 182.283 54.12 184.059 55.224C185.883 56.328 187.947 56.88 190.251 56.88ZM259.853 63.72C258.221 63.72 256.589 63.456 254.957 62.928C253.373 62.4 251.909 61.704 250.565 60.84C249.269 59.928 248.165 58.944 247.253 57.888C246.389 56.784 245.813 55.68 245.525 54.576L247.397 53.568V62.784L239.981 62.784V9.72H247.397V33.84L246.245 33.192C246.485 32.088 247.013 31.032 247.829 30.024C248.645 28.968 249.677 28.032 250.925 27.216C252.221 26.352 253.613 25.68 255.101 25.2C256.589 24.672 258.101 24.408 259.637 24.408C263.045 24.408 266.069 25.248 268.709 26.928C271.349 28.608 273.437 30.936 274.973 33.912C276.509 36.84 277.277 40.2 277.277 43.992C277.277 47.784 276.509 51.168 274.973 54.144C273.485 57.12 271.421 59.472 268.781 61.2C266.141 62.88 263.165 63.72 259.853 63.72ZM258.629 56.952C260.837 56.952 262.805 56.4 264.533 55.296C266.261 54.144 267.629 52.608 268.637 50.688C269.645 48.72 270.149 46.488 270.149 43.992C270.149 41.544 269.645 39.36 268.637 37.44C267.677 35.472 266.333 33.936 264.605 32.832C262.877 31.728 260.885 31.176 258.629 31.176C256.373 31.176 254.381 31.728 252.653 32.832C250.925 33.936 249.557 35.472 248.549 37.44C247.541 39.36 247.037 41.544 247.037 43.992C247.037 46.488 247.541 48.72 248.549 50.688C249.557 52.608 250.925 54.144 252.653 55.296C254.381 56.4 256.373 56.952 258.629 56.952ZM302.324 63.72C298.628 63.72 295.316 62.88 292.388 61.2C289.508 59.472 287.228 57.144 285.548 54.216C283.868 51.24 283.028 47.856 283.028 44.064C283.028 40.272 283.868 36.912 285.548 33.984C287.228 31.008 289.508 28.68 292.388 27C295.316 25.272 298.628 24.408 302.324 24.408C305.972 24.408 309.236 25.272 312.116 27C315.044 28.68 317.348 31.008 319.028 33.984C320.708 36.912 321.548 40.272 321.548 44.064C321.548 47.856 320.708 51.24 319.028 54.216C317.348 57.144 315.044 59.472 312.116 61.2C309.236 62.88 305.972 63.72 302.324 63.72ZM302.324 56.952C304.58 56.952 306.596 56.4 308.372 55.296C310.148 54.144 311.54 52.608 312.548 50.688C313.556 48.72 314.036 46.512 313.988 44.064C314.036 41.568 313.556 39.36 312.548 37.44C311.54 35.472 310.148 33.936 308.372 32.832C306.596 31.728 304.58 31.176 302.324 31.176C300.068 31.176 298.028 31.752 296.204 32.904C294.428 34.008 293.036 35.544 292.028 37.512C291.02 39.432 290.54 41.616 290.588 44.064C290.54 46.512 291.02 48.72 292.028 50.688C293.036 52.608 294.428 54.144 296.204 55.296C298.028 56.4 300.068 56.952 302.324 56.952ZM346.621 63.72C342.925 63.72 339.613 62.88 336.685 61.2C333.805 59.472 331.525 57.144 329.845 54.216C328.165 51.24 327.325 47.856 327.325 44.064C327.325 40.272 328.165 36.912 329.845 33.984C331.525 31.008 333.805 28.68 336.685 27C339.613 25.272 342.925 24.408 346.621 24.408C350.269 24.408 353.533 25.272 356.413 27C359.341 28.68 361.645 31.008 363.325 33.984C365.005 36.912 365.845 40.272 365.845 44.064C365.845 47.856 365.005 51.24 363.325 54.216C361.645 57.144 359.341 59.472 356.413 61.2C353.533 62.88 350.269 63.72 346.621 63.72ZM346.621 56.952C348.877 56.952 350.893 56.4 352.669 55.296C354.445 54.144 355.837 52.608 356.845 50.688C357.853 48.72 358.333 46.512 358.285 44.064C358.333 41.568 357.853 39.36 356.845 37.44C355.837 35.472 354.445 33.936 352.669 32.832C350.893 31.728 348.877 31.176 346.621 31.176C344.365 31.176 342.325 31.752 340.501 32.904C338.725 34.008 337.333 35.544 336.325 37.512C335.317 39.432 334.837 41.616 334.885 44.064C334.837 46.512 335.317 48.72 336.325 50.688C337.333 52.608 338.725 54.144 340.501 55.296C342.325 56.4 344.365 56.952 346.621 56.952ZM380.694 51.192L380.334 43.128L398.406 25.2H408.414L380.694 51.192ZM373.926 63V9.72L381.342 9.72V63L373.926 63ZM399.414 63L385.158 46.368L390.414 41.544L408.918 63H399.414ZM452.02 63.72C448.324 63.72 445.012 62.88 442.084 61.2C439.204 59.472 436.924 57.144 435.244 54.216C433.564 51.24 432.724 47.856 432.724 44.064C432.724 40.272 433.564 36.912 435.244 33.984C436.924 31.008 439.204 28.68 442.084 27C445.012 25.272 448.324 24.408 452.02 24.408C455.668 24.408 458.932 25.272 461.812 27C464.74 28.68 467.044 31.008 468.724 33.984C470.404 36.912 471.244 40.272 471.244 44.064C471.244 47.856 470.404 51.24 468.724 54.216C467.044 57.144 464.74 59.472 461.812 61.2C458.932 62.88 455.668 63.72 452.02 63.72ZM452.02 56.952C454.276 56.952 456.292 56.4 458.068 55.296C459.844 54.144 461.236 52.608 462.244 50.688C463.252 48.72 463.732 46.512 463.684 44.064C463.732 41.568 463.252 39.36 462.244 37.44C461.236 35.472 459.844 33.936 458.068 32.832C456.292 31.728 454.276 31.176 452.02 31.176C449.764 31.176 447.724 31.752 445.9 32.904C444.124 34.008 442.732 35.544 441.724 37.512C440.716 39.432 440.236 41.616 440.284 44.064C440.236 46.512 440.716 48.72 441.724 50.688C442.732 52.608 444.124 54.144 445.9 55.296C447.724 56.4 449.764 56.952 452.02 56.952ZM482.022 63V20.952C482.022 18.792 482.502 16.872 483.462 15.192C484.422 13.512 485.742 12.192 487.422 11.232C489.102 10.272 491.046 9.792 493.254 9.792C494.79 9.792 496.23 10.08 497.574 10.656C498.918 11.232 499.998 12 500.814 12.96L498.294 18.648C497.67 18.072 496.974 17.616 496.206 17.28C495.486 16.896 494.79 16.704 494.118 16.704C493.11 16.704 492.246 16.872 491.526 17.208C490.854 17.496 490.35 17.976 490.014 18.648C489.678 19.272 489.51 20.04 489.51 20.952V63H485.766C485.142 63 484.518 63 483.894 63C483.27 63 482.646 63 482.022 63ZM475.974 32.688V25.848L498.438 25.848V32.688H475.974ZM357.684 134V80.72H365.1V103.976L363.804 104.84C364.284 103.16 365.22 101.624 366.612 100.232C368.004 98.792 369.66 97.64 371.58 96.776C373.5 95.864 375.468 95.408 377.484 95.408C380.364 95.408 382.764 95.984 384.684 97.136C386.604 98.24 388.044 99.944 389.004 102.248C389.964 104.552 390.444 107.456 390.444 110.96V134H383.028V111.464C383.028 109.304 382.74 107.528 382.164 106.136C381.588 104.696 380.7 103.664 379.5 103.04C378.3 102.368 376.812 102.08 375.036 102.176C373.596 102.176 372.276 102.416 371.076 102.896C369.876 103.328 368.82 103.952 367.908 104.768C367.044 105.584 366.348 106.544 365.82 107.648C365.34 108.704 365.1 109.856 365.1 111.104V134H361.428C360.804 134 360.18 134 359.556 134C358.932 134 358.308 134 357.684 134ZM418.144 134.72C414.256 134.72 410.8 133.904 407.776 132.272C404.8 130.592 402.448 128.312 400.72 125.432C399.04 122.552 398.2 119.24 398.2 115.496C398.2 112.52 398.68 109.808 399.64 107.36C400.6 104.912 401.92 102.8 403.6 101.024C405.328 99.2 407.368 97.808 409.72 96.848C412.12 95.84 414.712 95.336 417.496 95.336C419.944 95.336 422.224 95.816 424.336 96.776C426.448 97.688 428.272 98.96 429.808 100.592C431.392 102.224 432.592 104.168 433.408 106.424C434.272 108.632 434.68 111.056 434.632 113.696L434.56 116.864H403.672L402.016 110.96H428.152L427.072 112.184V110.456C426.928 108.872 426.4 107.456 425.488 106.208C424.576 104.96 423.424 103.976 422.032 103.256C420.64 102.536 419.128 102.176 417.496 102.176C414.904 102.176 412.72 102.68 410.944 103.688C409.168 104.648 407.824 106.088 406.912 108.008C406 109.88 405.544 112.208 405.544 114.992C405.544 117.632 406.096 119.936 407.2 121.904C408.304 123.824 409.864 125.312 411.88 126.368C413.896 127.424 416.224 127.952 418.864 127.952C420.736 127.952 422.464 127.64 424.048 127.016C425.68 126.392 427.432 125.264 429.304 123.632L433.048 128.888C431.896 130.04 430.48 131.048 428.8 131.912C427.168 132.776 425.416 133.472 423.544 134C421.72 134.48 419.92 134.72 418.144 134.72ZM442.836 134V80.72H450.252V134H442.836ZM460.762 149.84V96.2H468.25V104.84L467.098 104.192C467.386 102.752 468.202 101.384 469.546 100.088C470.89 98.744 472.522 97.664 474.442 96.848C476.41 95.984 478.426 95.552 480.49 95.552C483.898 95.552 486.922 96.392 489.562 98.072C492.202 99.752 494.29 102.056 495.826 104.984C497.362 107.912 498.13 111.272 498.13 115.064C498.13 118.808 497.362 122.168 495.826 125.144C494.338 128.072 492.274 130.4 489.634 132.128C486.994 133.808 484.018 134.648 480.706 134.648C478.498 134.648 476.362 134.216 474.298 133.352C472.234 132.44 470.482 131.288 469.042 129.896C467.602 128.504 466.714 127.064 466.378 125.576L468.25 124.568V149.84H460.762ZM479.482 127.808C481.69 127.808 483.658 127.256 485.386 126.152C487.114 125.048 488.482 123.536 489.49 121.616C490.498 119.696 491.002 117.512 491.002 115.064C491.002 112.616 490.498 110.456 489.49 108.584C488.53 106.664 487.186 105.152 485.458 104.048C483.73 102.944 481.738 102.392 479.482 102.392C477.226 102.392 475.234 102.944 473.506 104.048C471.778 105.104 470.41 106.592 469.402 108.512C468.394 110.432 467.89 112.616 467.89 115.064C467.89 117.512 468.394 119.696 469.402 121.616C470.41 123.536 471.778 125.048 473.506 126.152C475.234 127.256 477.226 127.808 479.482 127.808Z" data-figma-gradient-fill="{&#34;type&#34;:&#34;GRADIENT_DIAMOND&#34;,&#34;stops&#34;:[{&#34;color&#34;:{&#34;r&#34;:0.40784314274787903,&#34;g&#34;:1.0,&#34;b&#34;:0.66274511814117432,&#34;a&#34;:1.0},&#34;position&#34;:0.0},{&#34;color&#34;:{&#34;r&#34;:1.0,&#34;g&#34;:1.0,&#34;b&#34;:0.40784314274787903,&#34;a&#34;:1.0},&#34;position&#34;:0.31250},{&#34;color&#34;:{&#34;r&#34;:1.0,&#34;g&#34;:0.68627452850341797,&#34;b&#34;:0.40784314274787903,&#34;a&#34;:1.0},&#34;position&#34;:0.62019228935241699},{&#34;color&#34;:{&#34;r&#34;:1.0,&#34;g&#34;:0.40784314274787903,&#34;b&#34;:0.65490198135375977,&#34;a&#34;:1.0},&#34;position&#34;:1.0}],&#34;stopsVar&#34;:[{&#34;color&#34;:{&#34;r&#34;:0.40784314274787903,&#34;g&#34;:1.0,&#34;b&#34;:0.66274511814117432,&#34;a&#34;:1.0},&#34;position&#34;:0.0},{&#34;color&#34;:{&#34;r&#34;:1.0,&#34;g&#34;:1.0,&#34;b&#34;:0.40784314274787903,&#34;a&#34;:1.0},&#34;position&#34;:0.31250},{&#34;color&#34;:{&#34;r&#34;:1.0,&#34;g&#34;:0.68627452850341797,&#34;b&#34;:0.40784314274787903,&#34;a&#34;:1.0},&#34;position&#34;:0.62019228935241699},{&#34;color&#34;:{&#34;r&#34;:1.0,&#34;g&#34;:0.40784314274787903,&#34;b&#34;:0.65490198135375977,&#34;a&#34;:1.0},&#34;position&#34;:1.0}],&#34;transform&#34;:{&#34;m00&#34;:493.50003051757812,&#34;m01&#34;:285.4182128906250,&#34;m02&#34;:-73.709121704101562,&#34;m10&#34;:-284.0,&#34;m11&#34;:495.96441650390625,&#34;m12&#34;:-11.482222557067871},&#34;opacity&#34;:1.0,&#34;blendMode&#34;:&#34;NORMAL&#34;,&#34;visible&#34;:true}"/>
<path d="M144.169 94.7129H139.892V98.0894H143.788V99.1367H139.892V104H138.69V93.6655H144.169V94.7129ZM152.621 104H147.926V102.953H149.706V94.7129H147.926V93.6655H152.621V94.7129H150.907V102.953H152.621V104ZM162.45 104H161.117L157.411 95.8408V104H156.21V93.6655H157.55L161.271 101.751V93.6655H162.45V104ZM165.373 93.6655H167.409C168.761 93.6655 169.845 94.127 170.661 95.0498C171.476 95.9678 171.884 97.23 171.884 98.8364C171.884 100.477 171.469 101.749 170.639 102.652C169.813 103.551 168.754 104 167.46 104H165.373V93.6655ZM166.574 102.953H167.423C168.405 102.953 169.181 102.589 169.752 101.861C170.324 101.134 170.609 100.125 170.609 98.8364C170.609 97.5571 170.321 96.5513 169.745 95.8188C169.174 95.0815 168.4 94.7129 167.423 94.7129H166.574V102.953ZM188.561 94.8081C187.946 94.5981 187.362 94.4932 186.811 94.4932C186.186 94.4932 185.675 94.6372 185.28 94.9253C184.889 95.2085 184.694 95.6138 184.694 96.1411C184.694 96.7661 185.209 97.3154 186.239 97.7891C187.001 98.1406 187.504 98.3848 187.748 98.5215C187.997 98.6582 188.249 98.8462 188.502 99.0854C188.756 99.3247 188.959 99.6079 189.11 99.9351C189.267 100.257 189.345 100.621 189.345 101.026C189.345 102.032 189.005 102.813 188.327 103.37C187.653 103.922 186.857 104.198 185.939 104.198C185.05 104.198 184.271 104.022 183.603 103.67L183.852 102.638C184.638 102.994 185.324 103.172 185.91 103.172C186.593 103.172 187.14 102.997 187.55 102.645C187.965 102.289 188.173 101.8 188.173 101.18C188.173 100.721 188.039 100.333 187.77 100.016C187.501 99.6934 187.006 99.3662 186.283 99.0342C185.541 98.6924 185.06 98.4604 184.84 98.3384C184.625 98.2114 184.411 98.0381 184.196 97.8184C183.981 97.5986 183.815 97.3521 183.698 97.0786C183.581 96.8052 183.522 96.5073 183.522 96.1851C183.522 95.3306 183.83 94.6641 184.445 94.1855C185.06 93.707 185.839 93.4678 186.781 93.4678C187.47 93.4678 188.153 93.5728 188.832 93.7827L188.561 94.8081ZM198.141 104H192.743V93.6655H198.097V94.7129H193.944V97.9136H197.936V98.9609H193.944V102.953H198.141V104ZM207.377 104H201.752V93.6655H202.953V102.953H207.377V104ZM216.239 94.7129H211.962V98.0894H215.858V99.1367H211.962V104H210.761V93.6655H216.239V94.7129ZM224.494 100.433H220.143V99.3198H224.494V100.433ZM234.374 104H233.173V98.873H229.635V104H228.434V93.6655H229.635V97.8184H233.173V93.6655H234.374V104ZM243.185 104H237.787V93.6655H243.141V94.7129H238.988V97.9136H242.98V98.9609H238.988V102.953H243.185V104ZM252.421 104H246.796V93.6655H247.997V102.953H252.421V104ZM255.805 93.6655H258.427C259.418 93.6655 260.211 93.9146 260.807 94.4126C261.403 94.9106 261.701 95.5967 261.701 96.4707C261.701 97.3496 261.403 98.0527 260.807 98.5801C260.216 99.1025 259.44 99.3638 258.478 99.3638H257.006V104H255.805V93.6655ZM257.006 98.3164H258.31C259.721 98.3164 260.426 97.7256 260.426 96.5439C260.426 95.9971 260.233 95.5552 259.848 95.2183C259.467 94.8813 258.974 94.7129 258.368 94.7129H257.006V98.3164ZM280.246 94.6396H277.06V104H275.866V94.6396H272.665V93.6655H280.246V94.6396ZM288.427 104H287.226V98.873H283.688V104H282.487V93.6655H283.688V97.8184H287.226V93.6655H288.427V104ZM298.578 104H297.318L296.176 100.382H292.785L291.627 104H290.382L293.759 93.6655H295.202L298.578 104ZM295.832 99.3345L294.477 95.0571L293.129 99.3345H295.832ZM307.272 94.6396H304.086V104H302.892V94.6396H299.691V93.6655H307.272V94.6396ZM312.377 95.2842C312.118 95.2549 311.906 95.1523 311.74 94.9766C311.574 94.7959 311.491 94.5884 311.491 94.354C311.491 94.105 311.571 93.895 311.732 93.7241C311.898 93.5532 312.104 93.4678 312.348 93.4678C312.621 93.4678 312.855 93.5801 313.051 93.8047C313.251 94.0244 313.351 94.293 313.351 94.6104C313.351 95.5625 312.821 96.3071 311.762 96.8442L311.476 96.3169C312.077 96.0239 312.377 95.6797 312.377 95.2842ZM323.693 94.8081C323.078 94.5981 322.494 94.4932 321.942 94.4932C321.317 94.4932 320.807 94.6372 320.412 94.9253C320.021 95.2085 319.826 95.6138 319.826 96.1411C319.826 96.7661 320.341 97.3154 321.371 97.7891C322.133 98.1406 322.636 98.3848 322.88 98.5215C323.129 98.6582 323.38 98.8462 323.634 99.0854C323.888 99.3247 324.091 99.6079 324.242 99.9351C324.398 100.257 324.477 100.621 324.477 101.026C324.477 102.032 324.137 102.813 323.458 103.37C322.785 103.922 321.989 104.198 321.071 104.198C320.182 104.198 319.403 104.022 318.734 103.67L318.983 102.638C319.77 102.994 320.456 103.172 321.042 103.172C321.725 103.172 322.272 102.997 322.682 102.645C323.097 102.289 323.305 101.8 323.305 101.18C323.305 100.721 323.17 100.333 322.902 100.016C322.633 99.6934 322.138 99.3662 321.415 99.0342C320.673 98.6924 320.192 98.4604 319.972 98.3384C319.757 98.2114 319.542 98.0381 319.328 97.8184C319.113 97.5986 318.947 97.3521 318.83 97.0786C318.712 96.8052 318.654 96.5073 318.654 96.1851C318.654 95.3306 318.961 94.6641 319.577 94.1855C320.192 93.707 320.971 93.4678 321.913 93.4678C322.602 93.4678 323.285 93.5728 323.964 93.7827L323.693 94.8081ZM190.473 128H189.213L188.07 124.382H184.679L183.522 128H182.277L185.653 117.666H187.096L190.473 128ZM187.726 123.334L186.371 119.057L185.023 123.334H187.726ZM198.712 127.355C197.902 127.917 196.962 128.198 195.893 128.198C194.555 128.198 193.537 127.739 192.838 126.821C192.145 125.903 191.798 124.575 191.798 122.836C191.798 121.157 192.135 119.843 192.809 118.896C193.483 117.944 194.511 117.468 195.893 117.468C196.391 117.468 196.884 117.531 197.372 117.658C197.86 117.785 198.253 117.954 198.551 118.164L198.156 119.108C197.467 118.718 196.713 118.522 195.893 118.522C194.94 118.522 194.232 118.869 193.769 119.562C193.305 120.251 193.073 121.342 193.073 122.836C193.073 125.708 194.013 127.143 195.893 127.143C196.688 127.143 197.504 126.899 198.339 126.411L198.712 127.355ZM208.175 118.64H204.989V128H203.795V118.64H200.595V117.666H208.175V118.64ZM216.356 124.748C216.356 125.944 216.112 126.818 215.624 127.37C215.141 127.922 214.403 128.198 213.412 128.198C211.415 128.198 210.417 127.058 210.417 124.777V117.666H211.618V124.667C211.618 126.318 212.216 127.143 213.412 127.143C214.013 127.143 214.452 126.948 214.73 126.557C215.014 126.167 215.155 125.532 215.155 124.653V117.666H216.356V124.748ZM226.508 128H225.248L224.105 124.382H220.714L219.557 128H218.312L221.688 117.666H223.131L226.508 128ZM223.761 123.334L222.406 119.057L221.059 123.334H223.761ZM234.403 128H228.778V117.666H229.979V126.953H234.403V128ZM243.412 128H237.787V117.666H238.988V126.953H243.412V128ZM253.263 117.666L250.033 123.576V128H248.839V123.576L245.609 117.666H246.964L249.433 122.316L251.908 117.666H253.263ZM270.409 128H269.208V122.873H265.67V128H264.469V117.666H265.67V121.818H269.208V117.666H270.409V128ZM279.22 128H273.822V117.666H279.176V118.713H275.023V121.914H279.015V122.961H275.023V126.953H279.22V128ZM288.456 128H282.831V117.666H284.032V126.953H288.456V128ZM291.84 117.666H294.462C295.453 117.666 296.247 117.915 296.842 118.413C297.438 118.911 297.736 119.597 297.736 120.471C297.736 121.35 297.438 122.053 296.842 122.58C296.251 123.103 295.475 123.364 294.513 123.364H293.041V128H291.84V117.666ZM293.041 122.316H294.345C295.756 122.316 296.461 121.726 296.461 120.544C296.461 119.997 296.269 119.555 295.883 119.218C295.502 118.881 295.009 118.713 294.403 118.713H293.041V122.316ZM306.327 118.713H302.05V122.089H305.946V123.137H302.05V128H300.849V117.666H306.327V118.713ZM315.453 124.748C315.453 125.944 315.209 126.818 314.721 127.37C314.237 127.922 313.5 128.198 312.509 128.198C310.512 128.198 309.513 127.058 309.513 124.777V117.666H310.714V124.667C310.714 126.318 311.312 127.143 312.509 127.143C313.109 127.143 313.549 126.948 313.827 126.557C314.11 126.167 314.252 125.532 314.252 124.653V117.666H315.453V124.748ZM324.491 128H318.866V117.666H320.067V126.953H324.491V128Z" fill="white"/>
<defs>
<clipPath id="paint0_diamond_1659_1456_clip_path"><path d="M127.525 63.72C125.893 63.72 124.261 63.456 122.629 62.928C121.045 62.4 119.581 61.704 118.237 60.84C116.941 59.928 115.837 58.944 114.925 57.888C114.061 56.784 113.485 55.68 113.197 54.576L115.069 53.568V62.784L107.653 62.784L107.653 9.72H115.069V33.84L113.917 33.192C114.157 32.088 114.685 31.032 115.501 30.024C116.317 28.968 117.349 28.032 118.597 27.216C119.893 26.352 121.285 25.68 122.773 25.2C124.261 24.672 125.773 24.408 127.309 24.408C130.717 24.408 133.741 25.248 136.381 26.928C139.021 28.608 141.109 30.936 142.645 33.912C144.181 36.84 144.949 40.2 144.949 43.992C144.949 47.784 144.181 51.168 142.645 54.144C141.157 57.12 139.093 59.472 136.453 61.2C133.813 62.88 130.837 63.72 127.525 63.72ZM126.301 56.952C128.509 56.952 130.477 56.4 132.205 55.296C133.933 54.144 135.301 52.608 136.309 50.688C137.317 48.72 137.821 46.488 137.821 43.992C137.821 41.544 137.317 39.36 136.309 37.44C135.349 35.472 134.005 33.936 132.277 32.832C130.549 31.728 128.557 31.176 126.301 31.176C124.045 31.176 122.053 31.728 120.325 32.832C118.597 33.936 117.229 35.472 116.221 37.44C115.213 39.36 114.709 41.544 114.709 43.992C114.709 46.488 115.213 48.72 116.221 50.688C117.229 52.608 118.597 54.144 120.325 55.296C122.053 56.4 124.045 56.952 126.301 56.952ZM154.228 63V25.2H161.644V63L154.228 63ZM157.828 16.848C156.244 16.848 155.02 16.44 154.156 15.624C153.292 14.808 152.86 13.656 152.86 12.168C152.86 10.776 153.292 9.648 154.156 8.784C155.068 7.92 156.292 7.488 157.828 7.488C159.412 7.488 160.636 7.896 161.5 8.712C162.364 9.528 162.796 10.68 162.796 12.168C162.796 13.56 162.34 14.688 161.428 15.552C160.564 16.416 159.364 16.848 157.828 16.848ZM189.963 79.56C187.275 79.56 184.587 79.128 181.899 78.264C179.259 77.448 177.123 76.368 175.491 75.024L178.227 69.264C179.187 69.984 180.315 70.608 181.611 71.136C182.907 71.712 184.275 72.144 185.715 72.432C187.155 72.768 188.571 72.936 189.963 72.936C192.603 72.936 194.811 72.504 196.587 71.64C198.363 70.776 199.707 69.504 200.619 67.824C201.531 66.144 201.987 64.056 201.987 61.56V54.288L202.779 54.792C202.539 56.28 201.747 57.72 200.403 59.112C199.107 60.456 197.475 61.56 195.507 62.424C193.539 63.288 191.523 63.72 189.459 63.72C185.859 63.72 182.643 62.88 179.811 61.2C177.027 59.472 174.819 57.144 173.187 54.216C171.555 51.24 170.739 47.856 170.739 44.064C170.739 40.272 171.531 36.912 173.115 33.984C174.747 31.008 176.955 28.68 179.739 27C182.571 25.272 185.739 24.408 189.243 24.408C190.683 24.408 192.075 24.6 193.419 24.984C194.763 25.32 196.011 25.824 197.163 26.496C198.315 27.12 199.347 27.816 200.259 28.584C201.171 29.352 201.915 30.168 202.491 31.032C203.067 31.896 203.427 32.712 203.571 33.48L201.987 34.056V25.2H209.403V60.696C209.403 63.72 208.947 66.384 208.035 68.688C207.171 71.04 205.899 73.008 204.219 74.592C202.539 76.224 200.499 77.448 198.099 78.264C195.699 79.128 192.987 79.56 189.963 79.56ZM190.251 56.88C192.603 56.88 194.691 56.328 196.515 55.224C198.339 54.12 199.755 52.608 200.763 50.688C201.771 48.768 202.275 46.56 202.275 44.064C202.275 41.568 201.747 39.36 200.691 37.44C199.683 35.472 198.267 33.936 196.443 32.832C194.667 31.728 192.603 31.176 190.251 31.176C187.947 31.176 185.883 31.752 184.059 32.904C182.283 34.008 180.867 35.544 179.811 37.512C178.803 39.432 178.299 41.616 178.299 44.064C178.299 46.512 178.803 48.72 179.811 50.688C180.867 52.608 182.283 54.12 184.059 55.224C185.883 56.328 187.947 56.88 190.251 56.88ZM259.853 63.72C258.221 63.72 256.589 63.456 254.957 62.928C253.373 62.4 251.909 61.704 250.565 60.84C249.269 59.928 248.165 58.944 247.253 57.888C246.389 56.784 245.813 55.68 245.525 54.576L247.397 53.568V62.784L239.981 62.784V9.72H247.397V33.84L246.245 33.192C246.485 32.088 247.013 31.032 247.829 30.024C248.645 28.968 249.677 28.032 250.925 27.216C252.221 26.352 253.613 25.68 255.101 25.2C256.589 24.672 258.101 24.408 259.637 24.408C263.045 24.408 266.069 25.248 268.709 26.928C271.349 28.608 273.437 30.936 274.973 33.912C276.509 36.84 277.277 40.2 277.277 43.992C277.277 47.784 276.509 51.168 274.973 54.144C273.485 57.12 271.421 59.472 268.781 61.2C266.141 62.88 263.165 63.72 259.853 63.72ZM258.629 56.952C260.837 56.952 262.805 56.4 264.533 55.296C266.261 54.144 267.629 52.608 268.637 50.688C269.645 48.72 270.149 46.488 270.149 43.992C270.149 41.544 269.645 39.36 268.637 37.44C267.677 35.472 266.333 33.936 264.605 32.832C262.877 31.728 260.885 31.176 258.629 31.176C256.373 31.176 254.381 31.728 252.653 32.832C250.925 33.936 249.557 35.472 248.549 37.44C247.541 39.36 247.037 41.544 247.037 43.992C247.037 46.488 247.541 48.72 248.549 50.688C249.557 52.608 250.925 54.144 252.653 55.296C254.381 56.4 256.373 56.952 258.629 56.952ZM302.324 63.72C298.628 63.72 295.316 62.88 292.388 61.2C289.508 59.472 287.228 57.144 285.548 54.216C283.868 51.24 283.028 47.856 283.028 44.064C283.028 40.272 283.868 36.912 285.548 33.984C287.228 31.008 289.508 28.68 292.388 27C295.316 25.272 298.628 24.408 302.324 24.408C305.972 24.408 309.236 25.272 312.116 27C315.044 28.68 317.348 31.008 319.028 33.984C320.708 36.912 321.548 40.272 321.548 44.064C321.548 47.856 320.708 51.24 319.028 54.216C317.348 57.144 315.044 59.472 312.116 61.2C309.236 62.88 305.972 63.72 302.324 63.72ZM302.324 56.952C304.58 56.952 306.596 56.4 308.372 55.296C310.148 54.144 311.54 52.608 312.548 50.688C313.556 48.72 314.036 46.512 313.988 44.064C314.036 41.568 313.556 39.36 312.548 37.44C311.54 35.472 310.148 33.936 308.372 32.832C306.596 31.728 304.58 31.176 302.324 31.176C300.068 31.176 298.028 31.752 296.204 32.904C294.428 34.008 293.036 35.544 292.028 37.512C291.02 39.432 290.54 41.616 290.588 44.064C290.54 46.512 291.02 48.72 292.028 50.688C293.036 52.608 294.428 54.144 296.204 55.296C298.028 56.4 300.068 56.952 302.324 56.952ZM346.621 63.72C342.925 63.72 339.613 62.88 336.685 61.2C333.805 59.472 331.525 57.144 329.845 54.216C328.165 51.24 327.325 47.856 327.325 44.064C327.325 40.272 328.165 36.912 329.845 33.984C331.525 31.008 333.805 28.68 336.685 27C339.613 25.272 342.925 24.408 346.621 24.408C350.269 24.408 353.533 25.272 356.413 27C359.341 28.68 361.645 31.008 363.325 33.984C365.005 36.912 365.845 40.272 365.845 44.064C365.845 47.856 365.005 51.24 363.325 54.216C361.645 57.144 359.341 59.472 356.413 61.2C353.533 62.88 350.269 63.72 346.621 63.72ZM346.621 56.952C348.877 56.952 350.893 56.4 352.669 55.296C354.445 54.144 355.837 52.608 356.845 50.688C357.853 48.72 358.333 46.512 358.285 44.064C358.333 41.568 357.853 39.36 356.845 37.44C355.837 35.472 354.445 33.936 352.669 32.832C350.893 31.728 348.877 31.176 346.621 31.176C344.365 31.176 342.325 31.752 340.501 32.904C338.725 34.008 337.333 35.544 336.325 37.512C335.317 39.432 334.837 41.616 334.885 44.064C334.837 46.512 335.317 48.72 336.325 50.688C337.333 52.608 338.725 54.144 340.501 55.296C342.325 56.4 344.365 56.952 346.621 56.952ZM380.694 51.192L380.334 43.128L398.406 25.2H408.414L380.694 51.192ZM373.926 63V9.72L381.342 9.72V63L373.926 63ZM399.414 63L385.158 46.368L390.414 41.544L408.918 63H399.414ZM452.02 63.72C448.324 63.72 445.012 62.88 442.084 61.2C439.204 59.472 436.924 57.144 435.244 54.216C433.564 51.24 432.724 47.856 432.724 44.064C432.724 40.272 433.564 36.912 435.244 33.984C436.924 31.008 439.204 28.68 442.084 27C445.012 25.272 448.324 24.408 452.02 24.408C455.668 24.408 458.932 25.272 461.812 27C464.74 28.68 467.044 31.008 468.724 33.984C470.404 36.912 471.244 40.272 471.244 44.064C471.244 47.856 470.404 51.24 468.724 54.216C467.044 57.144 464.74 59.472 461.812 61.2C458.932 62.88 455.668 63.72 452.02 63.72ZM452.02 56.952C454.276 56.952 456.292 56.4 458.068 55.296C459.844 54.144 461.236 52.608 462.244 50.688C463.252 48.72 463.732 46.512 463.684 44.064C463.732 41.568 463.252 39.36 462.244 37.44C461.236 35.472 459.844 33.936 458.068 32.832C456.292 31.728 454.276 31.176 452.02 31.176C449.764 31.176 447.724 31.752 445.9 32.904C444.124 34.008 442.732 35.544 441.724 37.512C440.716 39.432 440.236 41.616 440.284 44.064C440.236 46.512 440.716 48.72 441.724 50.688C442.732 52.608 444.124 54.144 445.9 55.296C447.724 56.4 449.764 56.952 452.02 56.952ZM482.022 63V20.952C482.022 18.792 482.502 16.872 483.462 15.192C484.422 13.512 485.742 12.192 487.422 11.232C489.102 10.272 491.046 9.792 493.254 9.792C494.79 9.792 496.23 10.08 497.574 10.656C498.918 11.232 499.998 12 500.814 12.96L498.294 18.648C497.67 18.072 496.974 17.616 496.206 17.28C495.486 16.896 494.79 16.704 494.118 16.704C493.11 16.704 492.246 16.872 491.526 17.208C490.854 17.496 490.35 17.976 490.014 18.648C489.678 19.272 489.51 20.04 489.51 20.952V63H485.766C485.142 63 484.518 63 483.894 63C483.27 63 482.646 63 482.022 63ZM475.974 32.688V25.848L498.438 25.848V32.688H475.974ZM357.684 134V80.72H365.1V103.976L363.804 104.84C364.284 103.16 365.22 101.624 366.612 100.232C368.004 98.792 369.66 97.64 371.58 96.776C373.5 95.864 375.468 95.408 377.484 95.408C380.364 95.408 382.764 95.984 384.684 97.136C386.604 98.24 388.044 99.944 389.004 102.248C389.964 104.552 390.444 107.456 390.444 110.96V134H383.028V111.464C383.028 109.304 382.74 107.528 382.164 106.136C381.588 104.696 380.7 103.664 379.5 103.04C378.3 102.368 376.812 102.08 375.036 102.176C373.596 102.176 372.276 102.416 371.076 102.896C369.876 103.328 368.82 103.952 367.908 104.768C367.044 105.584 366.348 106.544 365.82 107.648C365.34 108.704 365.1 109.856 365.1 111.104V134H361.428C360.804 134 360.18 134 359.556 134C358.932 134 358.308 134 357.684 134ZM418.144 134.72C414.256 134.72 410.8 133.904 407.776 132.272C404.8 130.592 402.448 128.312 400.72 125.432C399.04 122.552 398.2 119.24 398.2 115.496C398.2 112.52 398.68 109.808 399.64 107.36C400.6 104.912 401.92 102.8 403.6 101.024C405.328 99.2 407.368 97.808 409.72 96.848C412.12 95.84 414.712 95.336 417.496 95.336C419.944 95.336 422.224 95.816 424.336 96.776C426.448 97.688 428.272 98.96 429.808 100.592C431.392 102.224 432.592 104.168 433.408 106.424C434.272 108.632 434.68 111.056 434.632 113.696L434.56 116.864H403.672L402.016 110.96H428.152L427.072 112.184V110.456C426.928 108.872 426.4 107.456 425.488 106.208C424.576 104.96 423.424 103.976 422.032 103.256C420.64 102.536 419.128 102.176 417.496 102.176C414.904 102.176 412.72 102.68 410.944 103.688C409.168 104.648 407.824 106.088 406.912 108.008C406 109.88 405.544 112.208 405.544 114.992C405.544 117.632 406.096 119.936 407.2 121.904C408.304 123.824 409.864 125.312 411.88 126.368C413.896 127.424 416.224 127.952 418.864 127.952C420.736 127.952 422.464 127.64 424.048 127.016C425.68 126.392 427.432 125.264 429.304 123.632L433.048 128.888C431.896 130.04 430.48 131.048 428.8 131.912C427.168 132.776 425.416 133.472 423.544 134C421.72 134.48 419.92 134.72 418.144 134.72ZM442.836 134V80.72H450.252V134H442.836ZM460.762 149.84V96.2H468.25V104.84L467.098 104.192C467.386 102.752 468.202 101.384 469.546 100.088C470.89 98.744 472.522 97.664 474.442 96.848C476.41 95.984 478.426 95.552 480.49 95.552C483.898 95.552 486.922 96.392 489.562 98.072C492.202 99.752 494.29 102.056 495.826 104.984C497.362 107.912 498.13 111.272 498.13 115.064C498.13 118.808 497.362 122.168 495.826 125.144C494.338 128.072 492.274 130.4 489.634 132.128C486.994 133.808 484.018 134.648 480.706 134.648C478.498 134.648 476.362 134.216 474.298 133.352C472.234 132.44 470.482 131.288 469.042 129.896C467.602 128.504 466.714 127.064 466.378 125.576L468.25 124.568V149.84H460.762ZM479.482 127.808C481.69 127.808 483.658 127.256 485.386 126.152C487.114 125.048 488.482 123.536 489.49 121.616C490.498 119.696 491.002 117.512 491.002 115.064C491.002 112.616 490.498 110.456 489.49 108.584C488.53 106.664 487.186 105.152 485.458 104.048C483.73 102.944 481.738 102.392 479.482 102.392C477.226 102.392 475.234 102.944 473.506 104.048C471.778 105.104 470.41 106.592 469.402 108.512C468.394 110.432 467.89 112.616 467.89 115.064C467.89 117.512 468.394 119.696 469.402 121.616C470.41 123.536 471.778 125.048 473.506 126.152C475.234 127.256 477.226 127.808 479.482 127.808Z"/></clipPath><linearGradient id="paint0_diamond_1659_1456" x1="0" y1="0" x2="500" y2="500" gradientUnits="userSpaceOnUse">
<stop stop-color="#68FFA9"/>
<stop offset="0.3125" stop-color="#FFFF68"/>
<stop offset="0.620192" stop-color="#FFAF68"/>
<stop offset="1" stop-color="#FF68A7"/>
</linearGradient>
</defs>
</svg>
